<svg xmlns="http://www.w3.org/2000/svg" width="500" height="330" viewBox="0 0 500 330" fill="none">
<defs>
<filter id="glow" x="-10%" y="-10%" width="120%" height="120%"><feGaussianBlur stdDeviation="3"/></filter>
<style>.s{font-family:-apple-system, BlinkMacSystemFont, 'Segoe UI', Helvetica, Arial, sans-serif}.m{font-family:ui-monospace, SFMono-Regular, 'SF Mono', Menlo, Consolas, 'Liberation Mono', monospace}</style>
</defs>
<rect x="6" y="6" width="488" height="318" rx="10" stroke="#00b7ff" stroke-opacity=".35" stroke-width="2" filter="url(#glow)"/>
<rect x="6" y="6" width="488" height="318" rx="10" fill="#0a1424" stroke="#1f6feb" stroke-opacity=".75"/>
<text x="28" y="44" class="s" font-size="17" font-weight="700" fill="#e6edf3" text-anchor="start" >GitHub Stats</text>
<text x="472" y="44" class="m" font-size="12" font-weight="400" fill="#8b949e" text-anchor="end" >@shurandaa</text>
<rect x="28" y="64" width="212" height="74" rx="8" fill="#0d1b30" stroke="#1f6feb" stroke-opacity=".35"/>
<rect x="28" y="80" width="3" height="42" rx="1.5" fill="#d29922"/>
<text x="46" y="91" class="m" font-size="10.5" font-weight="500" fill="#8b949e" text-anchor="start" letter-spacing=".6">TOTAL STARS</text>
<text x="46" y="122" class="s" font-size="25" font-weight="700" fill="#e6edf3" text-anchor="start" >1</text>
<rect x="260" y="64" width="212" height="74" rx="8" fill="#0d1b30" stroke="#1f6feb" stroke-opacity=".35"/>
<rect x="260" y="80" width="3" height="42" rx="1.5" fill="#00b7ff"/>
<text x="278" y="91" class="m" font-size="10.5" font-weight="500" fill="#8b949e" text-anchor="start" letter-spacing=".6">TOTAL COMMITS</text>
<text x="278" y="122" class="s" font-size="25" font-weight="700" fill="#e6edf3" text-anchor="start" >33</text>
<rect x="28" y="150" width="212" height="74" rx="8" fill="#0d1b30" stroke="#1f6feb" stroke-opacity=".35"/>
<rect x="28" y="166" width="3" height="42" rx="1.5" fill="#a371f7"/>
<text x="46" y="177" class="m" font-size="10.5" font-weight="500" fill="#8b949e" text-anchor="start" letter-spacing=".6">TOTAL PRS</text>
<text x="46" y="208" class="s" font-size="25" font-weight="700" fill="#e6edf3" text-anchor="start" >2</text>
<rect x="260" y="150" width="212" height="74" rx="8" fill="#0d1b30" stroke="#1f6feb" stroke-opacity=".35"/>
<rect x="260" y="166" width="3" height="42" rx="1.5" fill="#58a6ff"/>
<text x="278" y="177" class="m" font-size="10.5" font-weight="500" fill="#8b949e" text-anchor="start" letter-spacing=".6">TOTAL ISSUES</text>
<text x="278" y="208" class="s" font-size="25" font-weight="700" fill="#e6edf3" text-anchor="start" >0</text>
<rect x="28" y="236" width="212" height="74" rx="8" fill="#0d1b30" stroke="#1f6feb" stroke-opacity=".35"/>
<rect x="28" y="252" width="3" height="42" rx="1.5" fill="#3fb950"/>
<text x="46" y="263" class="m" font-size="10.5" font-weight="500" fill="#8b949e" text-anchor="start" letter-spacing=".6">CONTRIBUTIONS 2026</text>
<text x="46" y="294" class="s" font-size="25" font-weight="700" fill="#e6edf3" text-anchor="start" >8</text>
<rect x="260" y="236" width="212" height="74" rx="8" fill="#0d1b30" stroke="#1f6feb" stroke-opacity=".35"/>
<rect x="260" y="252" width="3" height="42" rx="1.5" fill="#f0883e"/>
<text x="278" y="263" class="m" font-size="10.5" font-weight="500" fill="#8b949e" text-anchor="start" letter-spacing=".6">CURRENT STREAK</text>
<text x="278" y="294" class="s" font-size="25" font-weight="700" fill="#e6edf3" text-anchor="start" >1 day</text>

</svg>
