<svg xmlns="http://www.w3.org/2000/svg" width="340" height="380" viewBox="0 0 340 380" fill="none">
<defs>
<filter id="glow" x="-10%" y="-10%" width="120%" height="120%"><feGaussianBlur stdDeviation="3"/></filter>
<style>.s{font-family:-apple-system, BlinkMacSystemFont, 'Segoe UI', Helvetica, Arial, sans-serif}.m{font-family:ui-monospace, SFMono-Regular, 'SF Mono', Menlo, Consolas, 'Liberation Mono', monospace}</style>
<radialGradient id="screen" cx="50%" cy="50%" r="50%"><stop offset="0" stop-color="#00b7ff" stop-opacity=".22"/><stop offset="1" stop-color="#00b7ff" stop-opacity="0"/></radialGradient></defs>
<rect x="6" y="6" width="328" height="368" rx="10" stroke="#00b7ff" stroke-opacity=".35" stroke-width="2" filter="url(#glow)"/>
<rect x="6" y="6" width="328" height="368" rx="10" fill="#0a1424" stroke="#1f6feb" stroke-opacity=".75"/>
<text x="26" y="38" class="m" font-size="11" font-weight="600" fill="#8b949e" text-anchor="start" letter-spacing="1.5">PAIR PROGRAMMER</text>
<circle cx="250" cy="34" r="3.5" fill="#3fb950"><animate attributeName="opacity" values="1;.35;1" dur="2.4s" repeatCount="indefinite"/></circle><text x="314" y="38" class="m" font-size="11" font-weight="600" fill="#3fb950" text-anchor="end" letter-spacing="1.5">ONLINE</text>
<ellipse cx="170.0" cy="165.15" rx="126.0" ry="79.8" fill="url(#screen)"/>
<g opacity=".7"><text x="58" y="104" class="m" font-size="14" font-weight="700" fill="#00b7ff" text-anchor="middle" >&lt;/&gt;</text><animateTransform attributeName="transform" type="translate" values="0 0;0 -6;0 0" dur="4s" repeatCount="indefinite"/></g>
<g opacity=".7"><text x="278" y="128" class="m" font-size="14" font-weight="700" fill="#a371f7" text-anchor="middle" >{ }</text><animateTransform attributeName="transform" type="translate" values="0 0;0 -6;0 0" dur="5s" repeatCount="indefinite"/></g>
<g opacity=".7"><text x="70" y="196" class="m" font-size="14" font-weight="700" fill="#a371f7" text-anchor="middle" >λ</text><animateTransform attributeName="transform" type="translate" values="0 0;0 -6;0 0" dur="4.5s" repeatCount="indefinite"/></g>
<g opacity=".7"><text x="270" y="206" class="m" font-size="14" font-weight="700" fill="#00b7ff" text-anchor="middle" >0x1</text><animateTransform attributeName="transform" type="translate" values="0 0;0 -6;0 0" dur="5.5s" repeatCount="indefinite"/></g>
<g shape-rendering="crispEdges"><rect x="114" y="92" width="7" height="7" fill="#3b4a66"/><rect x="121" y="92" width="7" height="7" fill="#3b4a66"/><rect x="212" y="92" width="7" height="7" fill="#3b4a66"/><rect x="219" y="92" width="7" height="7" fill="#3b4a66"/><rect x="114" y="99" width="7" height="7" fill="#3b4a66"/><rect x="121" y="99" width="7" height="7" fill="#e6edf3"/><rect x="128" y="99" width="7" height="7" fill="#3b4a66"/><rect x="205" y="99" width="7" height="7" fill="#3b4a66"/><rect x="212" y="99" width="7" height="7" fill="#e6edf3"/><rect x="219" y="99" width="7" height="7" fill="#3b4a66"/><rect x="114" y="106" width="7" height="7" fill="#3b4a66"/><rect x="121" y="106" width="7" height="7" fill="#e6edf3"/><rect x="128" y="106" width="7" height="7" fill="#f778ba"/><rect x="135" y="106" width="7" height="7" fill="#3b4a66"/><rect x="198" y="106" width="7" height="7" fill="#3b4a66"/><rect x="205" y="106" width="7" height="7" fill="#f778ba"/><rect x="212" y="106" width="7" height="7" fill="#e6edf3"/><rect x="219" y="106" width="7" height="7" fill="#3b4a66"/><rect x="114" y="113" width="7" height="7" fill="#3b4a66"/><rect x="121" y="113" width="7" height="7" fill="#e6edf3"/><rect x="128" y="113" width="7" height="7" fill="#e6edf3"/><rect x="135" y="113" width="7" height="7" fill="#e6edf3"/><rect x="142" y="113" width="7" height="7" fill="#3b4a66"/><rect x="149" y="113" width="7" height="7" fill="#3b4a66"/><rect x="156" y="113" width="7" height="7" fill="#3b4a66"/><rect x="163" y="113" width="7" height="7" fill="#3b4a66"/><rect x="170" y="113" width="7" height="7" fill="#3b4a66"/><rect x="177" y="113" width="7" height="7" fill="#3b4a66"/><rect x="184" y="113" width="7" height="7" fill="#3b4a66"/><rect x="191" y="113" width="7" height="7" fill="#3b4a66"/><rect x="198" y="113" width="7" height="7" fill="#e6edf3"/><rect x="205" y="113" width="7" height="7" fill="#e6edf3"/><rect x="212" y="113" width="7" height="7" fill="#e6edf3"/><rect x="219" y="113" width="7" height="7" fill="#3b4a66"/><rect x="107" y="120" width="7" height="7" fill="#3b4a66"/><rect x="114" y="120" width="7" height="7" fill="#e6edf3"/><rect x="121" y="120" width="7" height="7" fill="#e6edf3"/><rect x="128" y="120" width="7" height="7" fill="#e6edf3"/><rect x="135" y="120" width="7" height="7" fill="#e6edf3"/><rect x="142" y="120" width="7" height="7" fill="#e6edf3"/><rect x="149" y="120" width="7" height="7" fill="#e6edf3"/><rect x="156" y="120" width="7" height="7" fill="#e6edf3"/><rect x="163" y="120" width="7" height="7" fill="#e6edf3"/><rect x="170" y="120" width="7" height="7" fill="#e6edf3"/><rect x="177" y="120" width="7" height="7" fill="#e6edf3"/><rect x="184" y="120" width="7" height="7" fill="#e6edf3"/><rect x="191" y="120" width="7" height="7" fill="#e6edf3"/><rect x="198" y="120" width="7" height="7" fill="#e6edf3"/><rect x="205" y="120" width="7" height="7" fill="#e6edf3"/><rect x="212" y="120" width="7" height="7" fill="#e6edf3"/><rect x="219" y="120" width="7" height="7" fill="#e6edf3"/><rect x="226" y="120" width="7" height="7" fill="#3b4a66"/><rect x="107" y="127" width="7" height="7" fill="#3b4a66"/><rect x="114" y="127" width="7" height="7" fill="#e6edf3"/><rect x="121" y="127" width="7" height="7" fill="#e6edf3"/><rect x="128" y="127" width="7" height="7" fill="#e6edf3"/><rect x="135" y="127" width="7" height="7" fill="#e6edf3"/><rect x="142" y="127" width="7" height="7" fill="#e6edf3"/><rect x="149" y="127" width="7" height="7" fill="#e6edf3"/><rect x="156" y="127" width="7" height="7" fill="#e6edf3"/><rect x="163" y="127" width="7" height="7" fill="#e6edf3"/><rect x="170" y="127" width="7" height="7" fill="#e6edf3"/><rect x="177" y="127" width="7" height="7" fill="#e6edf3"/><rect x="184" y="127" width="7" height="7" fill="#e6edf3"/><rect x="191" y="127" width="7" height="7" fill="#e6edf3"/><rect x="198" y="127" width="7" height="7" fill="#e6edf3"/><rect x="205" y="127" width="7" height="7" fill="#e6edf3"/><rect x="212" y="127" width="7" height="7" fill="#e6edf3"/><rect x="219" y="127" width="7" height="7" fill="#e6edf3"/><rect x="226" y="127" width="7" height="7" fill="#3b4a66"/><rect x="107" y="134" width="7" height="7" fill="#3b4a66"/><rect x="114" y="134" width="7" height="7" fill="#e6edf3"/><rect x="121" y="134" width="7" height="7" fill="#e6edf3"/><rect x="128" y="134" width="7" height="7" fill="#00b7ff"/><rect x="135" y="134" width="7" height="7" fill="#00b7ff"/><rect x="142" y="134" width="7" height="7" fill="#e6edf3"/><rect x="149" y="134" width="7" height="7" fill="#e6edf3"/><rect x="156" y="134" width="7" height="7" fill="#e6edf3"/><rect x="163" y="134" width="7" height="7" fill="#e6edf3"/><rect x="170" y="134" width="7" height="7" fill="#e6edf3"/><rect x="177" y="134" width="7" height="7" fill="#e6edf3"/><rect x="184" y="134" width="7" height="7" fill="#e6edf3"/><rect x="191" y="134" width="7" height="7" fill="#e6edf3"/><rect x="198" y="134" width="7" height="7" fill="#00b7ff"/><rect x="205" y="134" width="7" height="7" fill="#00b7ff"/><rect x="212" y="134" width="7" height="7" fill="#e6edf3"/><rect x="219" y="134" width="7" height="7" fill="#e6edf3"/><rect x="226" y="134" width="7" height="7" fill="#3b4a66"/><rect x="107" y="141" width="7" height="7" fill="#3b4a66"/><rect x="114" y="141" width="7" height="7" fill="#e6edf3"/><rect x="121" y="141" width="7" height="7" fill="#e6edf3"/><rect x="128" y="141" width="7" height="7" fill="#00b7ff"/><rect x="135" y="141" width="7" height="7" fill="#00b7ff"/><rect x="142" y="141" width="7" height="7" fill="#e6edf3"/><rect x="149" y="141" width="7" height="7" fill="#e6edf3"/><rect x="156" y="141" width="7" height="7" fill="#e6edf3"/><rect x="163" y="141" width="7" height="7" fill="#e6edf3"/><rect x="170" y="141" width="7" height="7" fill="#e6edf3"/><rect x="177" y="141" width="7" height="7" fill="#e6edf3"/><rect x="184" y="141" width="7" height="7" fill="#e6edf3"/><rect x="191" y="141" width="7" height="7" fill="#e6edf3"/><rect x="198" y="141" width="7" height="7" fill="#00b7ff"/><rect x="205" y="141" width="7" height="7" fill="#00b7ff"/><rect x="212" y="141" width="7" height="7" fill="#e6edf3"/><rect x="219" y="141" width="7" height="7" fill="#e6edf3"/><rect x="226" y="141" width="7" height="7" fill="#3b4a66"/><rect x="107" y="148" width="7" height="7" fill="#3b4a66"/><rect x="114" y="148" width="7" height="7" fill="#e6edf3"/><rect x="121" y="148" width="7" height="7" fill="#e6edf3"/><rect x="128" y="148" width="7" height="7" fill="#e6edf3"/><rect x="135" y="148" width="7" height="7" fill="#e6edf3"/><rect x="142" y="148" width="7" height="7" fill="#e6edf3"/><rect x="149" y="148" width="7" height="7" fill="#e6edf3"/><rect x="156" y="148" width="7" height="7" fill="#e6edf3"/><rect x="163" y="148" width="7" height="7" fill="#f778ba"/><rect x="170" y="148" width="7" height="7" fill="#f778ba"/><rect x="177" y="148" width="7" height="7" fill="#e6edf3"/><rect x="184" y="148" width="7" height="7" fill="#e6edf3"/><rect x="191" y="148" width="7" height="7" fill="#e6edf3"/><rect x="198" y="148" width="7" height="7" fill="#e6edf3"/><rect x="205" y="148" width="7" height="7" fill="#e6edf3"/><rect x="212" y="148" width="7" height="7" fill="#e6edf3"/><rect x="219" y="148" width="7" height="7" fill="#e6edf3"/><rect x="226" y="148" width="7" height="7" fill="#3b4a66"/><rect x="107" y="155" width="7" height="7" fill="#3b4a66"/><rect x="114" y="155" width="7" height="7" fill="#e6edf3"/><rect x="121" y="155" width="7" height="7" fill="#f2a7c3"/><rect x="128" y="155" width="7" height="7" fill="#e6edf3"/><rect x="135" y="155" width="7" height="7" fill="#e6edf3"/><rect x="142" y="155" width="7" height="7" fill="#e6edf3"/><rect x="149" y="155" width="7" height="7" fill="#e6edf3"/><rect x="156" y="155" width="7" height="7" fill="#f2a7c3"/><rect x="163" y="155" width="7" height="7" fill="#e6edf3"/><rect x="170" y="155" width="7" height="7" fill="#e6edf3"/><rect x="177" y="155" width="7" height="7" fill="#f2a7c3"/><rect x="184" y="155" width="7" height="7" fill="#e6edf3"/><rect x="191" y="155" width="7" height="7" fill="#e6edf3"/><rect x="198" y="155" width="7" height="7" fill="#e6edf3"/><rect x="205" y="155" width="7" height="7" fill="#e6edf3"/><rect x="212" y="155" width="7" height="7" fill="#f2a7c3"/><rect x="219" y="155" width="7" height="7" fill="#e6edf3"/><rect x="226" y="155" width="7" height="7" fill="#3b4a66"/><rect x="114" y="162" width="7" height="7" fill="#3b4a66"/><rect x="121" y="162" width="7" height="7" fill="#e6edf3"/><rect x="128" y="162" width="7" height="7" fill="#e6edf3"/><rect x="135" y="162" width="7" height="7" fill="#e6edf3"/><rect x="142" y="162" width="7" height="7" fill="#e6edf3"/><rect x="149" y="162" width="7" height="7" fill="#e6edf3"/><rect x="156" y="162" width="7" height="7" fill="#e6edf3"/><rect x="163" y="162" width="7" height="7" fill="#e6edf3"/><rect x="170" y="162" width="7" height="7" fill="#e6edf3"/><rect x="177" y="162" width="7" height="7" fill="#e6edf3"/><rect x="184" y="162" width="7" height="7" fill="#e6edf3"/><rect x="191" y="162" width="7" height="7" fill="#e6edf3"/><rect x="198" y="162" width="7" height="7" fill="#e6edf3"/><rect x="205" y="162" width="7" height="7" fill="#e6edf3"/><rect x="212" y="162" width="7" height="7" fill="#e6edf3"/><rect x="219" y="162" width="7" height="7" fill="#3b4a66"/><rect x="100" y="169" width="7" height="7" fill="#484f58"/><rect x="107" y="169" width="7" height="7" fill="#484f58"/><rect x="114" y="169" width="7" height="7" fill="#e6edf3"/><rect x="121" y="169" width="7" height="7" fill="#e6edf3"/><rect x="128" y="169" width="7" height="7" fill="#484f58"/><rect x="135" y="169" width="7" height="7" fill="#484f58"/><rect x="142" y="169" width="7" height="7" fill="#484f58"/><rect x="149" y="169" width="7" height="7" fill="#484f58"/><rect x="156" y="169" width="7" height="7" fill="#484f58"/><rect x="163" y="169" width="7" height="7" fill="#484f58"/><rect x="170" y="169" width="7" height="7" fill="#484f58"/><rect x="177" y="169" width="7" height="7" fill="#484f58"/><rect x="184" y="169" width="7" height="7" fill="#484f58"/><rect x="191" y="169" width="7" height="7" fill="#484f58"/><rect x="198" y="169" width="7" height="7" fill="#484f58"/><rect x="205" y="169" width="7" height="7" fill="#484f58"/><rect x="212" y="169" width="7" height="7" fill="#e6edf3"/><rect x="219" y="169" width="7" height="7" fill="#e6edf3"/><rect x="226" y="169" width="7" height="7" fill="#484f58"/><rect x="233" y="169" width="7" height="7" fill="#484f58"/><rect x="100" y="176" width="7" height="7" fill="#484f58"/><rect x="107" y="176" width="7" height="7" fill="#21262d"/><rect x="114" y="176" width="7" height="7" fill="#21262d"/><rect x="121" y="176" width="7" height="7" fill="#21262d"/><rect x="128" y="176" width="7" height="7" fill="#21262d"/><rect x="135" y="176" width="7" height="7" fill="#21262d"/><rect x="142" y="176" width="7" height="7" fill="#21262d"/><rect x="149" y="176" width="7" height="7" fill="#21262d"/><rect x="156" y="176" width="7" height="7" fill="#21262d"/><rect x="163" y="176" width="7" height="7" fill="#21262d"/><rect x="170" y="176" width="7" height="7" fill="#21262d"/><rect x="177" y="176" width="7" height="7" fill="#21262d"/><rect x="184" y="176" width="7" height="7" fill="#21262d"/><rect x="191" y="176" width="7" height="7" fill="#21262d"/><rect x="198" y="176" width="7" height="7" fill="#21262d"/><rect x="205" y="176" width="7" height="7" fill="#21262d"/><rect x="212" y="176" width="7" height="7" fill="#21262d"/><rect x="219" y="176" width="7" height="7" fill="#21262d"/><rect x="226" y="176" width="7" height="7" fill="#21262d"/><rect x="233" y="176" width="7" height="7" fill="#484f58"/><rect x="100" y="183" width="7" height="7" fill="#484f58"/><rect x="107" y="183" width="7" height="7" fill="#21262d"/><rect x="114" y="183" width="7" height="7" fill="#21262d"/><rect x="121" y="183" width="7" height="7" fill="#21262d"/><rect x="128" y="183" width="7" height="7" fill="#21262d"/><rect x="135" y="183" width="7" height="7" fill="#21262d"/><rect x="142" y="183" width="7" height="7" fill="#21262d"/><rect x="149" y="183" width="7" height="7" fill="#21262d"/><rect x="156" y="183" width="7" height="7" fill="#21262d"/><rect x="163" y="183" width="7" height="7" fill="#00b7ff"/><rect x="170" y="183" width="7" height="7" fill="#00b7ff"/><rect x="177" y="183" width="7" height="7" fill="#21262d"/><rect x="184" y="183" width="7" height="7" fill="#21262d"/><rect x="191" y="183" width="7" height="7" fill="#21262d"/><rect x="198" y="183" width="7" height="7" fill="#21262d"/><rect x="205" y="183" width="7" height="7" fill="#21262d"/><rect x="212" y="183" width="7" height="7" fill="#21262d"/><rect x="219" y="183" width="7" height="7" fill="#21262d"/><rect x="226" y="183" width="7" height="7" fill="#21262d"/><rect x="233" y="183" width="7" height="7" fill="#484f58"/><rect x="100" y="190" width="7" height="7" fill="#484f58"/><rect x="107" y="190" width="7" height="7" fill="#21262d"/><rect x="114" y="190" width="7" height="7" fill="#21262d"/><rect x="121" y="190" width="7" height="7" fill="#21262d"/><rect x="128" y="190" width="7" height="7" fill="#21262d"/><rect x="135" y="190" width="7" height="7" fill="#21262d"/><rect x="142" y="190" width="7" height="7" fill="#21262d"/><rect x="149" y="190" width="7" height="7" fill="#21262d"/><rect x="156" y="190" width="7" height="7" fill="#00b7ff"/><rect x="163" y="190" width="7" height="7" fill="#00b7ff"/><rect x="170" y="190" width="7" height="7" fill="#00b7ff"/><rect x="177" y="190" width="7" height="7" fill="#00b7ff"/><rect x="184" y="190" width="7" height="7" fill="#21262d"/><rect x="191" y="190" width="7" height="7" fill="#21262d"/><rect x="198" y="190" width="7" height="7" fill="#21262d"/><rect x="205" y="190" width="7" height="7" fill="#21262d"/><rect x="212" y="190" width="7" height="7" fill="#21262d"/><rect x="219" y="190" width="7" height="7" fill="#21262d"/><rect x="226" y="190" width="7" height="7" fill="#21262d"/><rect x="233" y="190" width="7" height="7" fill="#484f58"/><rect x="100" y="197" width="7" height="7" fill="#484f58"/><rect x="107" y="197" width="7" height="7" fill="#21262d"/><rect x="114" y="197" width="7" height="7" fill="#21262d"/><rect x="121" y="197" width="7" height="7" fill="#21262d"/><rect x="128" y="197" width="7" height="7" fill="#21262d"/><rect x="135" y="197" width="7" height="7" fill="#21262d"/><rect x="142" y="197" width="7" height="7" fill="#21262d"/><rect x="149" y="197" width="7" height="7" fill="#21262d"/><rect x="156" y="197" width="7" height="7" fill="#00b7ff"/><rect x="163" y="197" width="7" height="7" fill="#00b7ff"/><rect x="170" y="197" width="7" height="7" fill="#00b7ff"/><rect x="177" y="197" width="7" height="7" fill="#00b7ff"/><rect x="184" y="197" width="7" height="7" fill="#21262d"/><rect x="191" y="197" width="7" height="7" fill="#21262d"/><rect x="198" y="197" width="7" height="7" fill="#21262d"/><rect x="205" y="197" width="7" height="7" fill="#21262d"/><rect x="212" y="197" width="7" height="7" fill="#21262d"/><rect x="219" y="197" width="7" height="7" fill="#21262d"/><rect x="226" y="197" width="7" height="7" fill="#21262d"/><rect x="233" y="197" width="7" height="7" fill="#484f58"/><rect x="100" y="204" width="7" height="7" fill="#484f58"/><rect x="107" y="204" width="7" height="7" fill="#21262d"/><rect x="114" y="204" width="7" height="7" fill="#21262d"/><rect x="121" y="204" width="7" height="7" fill="#21262d"/><rect x="128" y="204" width="7" height="7" fill="#21262d"/><rect x="135" y="204" width="7" height="7" fill="#21262d"/><rect x="142" y="204" width="7" height="7" fill="#21262d"/><rect x="149" y="204" width="7" height="7" fill="#21262d"/><rect x="156" y="204" width="7" height="7" fill="#21262d"/><rect x="163" y="204" width="7" height="7" fill="#00b7ff"/><rect x="170" y="204" width="7" height="7" fill="#00b7ff"/><rect x="177" y="204" width="7" height="7" fill="#21262d"/><rect x="184" y="204" width="7" height="7" fill="#21262d"/><rect x="191" y="204" width="7" height="7" fill="#21262d"/><rect x="198" y="204" width="7" height="7" fill="#21262d"/><rect x="205" y="204" width="7" height="7" fill="#21262d"/><rect x="212" y="204" width="7" height="7" fill="#21262d"/><rect x="219" y="204" width="7" height="7" fill="#21262d"/><rect x="226" y="204" width="7" height="7" fill="#21262d"/><rect x="233" y="204" width="7" height="7" fill="#484f58"/><rect x="100" y="211" width="7" height="7" fill="#484f58"/><rect x="107" y="211" width="7" height="7" fill="#21262d"/><rect x="114" y="211" width="7" height="7" fill="#21262d"/><rect x="121" y="211" width="7" height="7" fill="#21262d"/><rect x="128" y="211" width="7" height="7" fill="#21262d"/><rect x="135" y="211" width="7" height="7" fill="#21262d"/><rect x="142" y="211" width="7" height="7" fill="#21262d"/><rect x="149" y="211" width="7" height="7" fill="#21262d"/><rect x="156" y="211" width="7" height="7" fill="#21262d"/><rect x="163" y="211" width="7" height="7" fill="#21262d"/><rect x="170" y="211" width="7" height="7" fill="#21262d"/><rect x="177" y="211" width="7" height="7" fill="#21262d"/><rect x="184" y="211" width="7" height="7" fill="#21262d"/><rect x="191" y="211" width="7" height="7" fill="#21262d"/><rect x="198" y="211" width="7" height="7" fill="#21262d"/><rect x="205" y="211" width="7" height="7" fill="#21262d"/><rect x="212" y="211" width="7" height="7" fill="#21262d"/><rect x="219" y="211" width="7" height="7" fill="#21262d"/><rect x="226" y="211" width="7" height="7" fill="#21262d"/><rect x="233" y="211" width="7" height="7" fill="#484f58"/><rect x="93" y="218" width="7" height="7" fill="#484f58"/><rect x="100" y="218" width="7" height="7" fill="#484f58"/><rect x="107" y="218" width="7" height="7" fill="#484f58"/><rect x="114" y="218" width="7" height="7" fill="#484f58"/><rect x="121" y="218" width="7" height="7" fill="#484f58"/><rect x="128" y="218" width="7" height="7" fill="#484f58"/><rect x="135" y="218" width="7" height="7" fill="#484f58"/><rect x="142" y="218" width="7" height="7" fill="#484f58"/><rect x="149" y="218" width="7" height="7" fill="#484f58"/><rect x="156" y="218" width="7" height="7" fill="#484f58"/><rect x="163" y="218" width="7" height="7" fill="#484f58"/><rect x="170" y="218" width="7" height="7" fill="#484f58"/><rect x="177" y="218" width="7" height="7" fill="#484f58"/><rect x="184" y="218" width="7" height="7" fill="#484f58"/><rect x="191" y="218" width="7" height="7" fill="#484f58"/><rect x="198" y="218" width="7" height="7" fill="#484f58"/><rect x="205" y="218" width="7" height="7" fill="#484f58"/><rect x="212" y="218" width="7" height="7" fill="#484f58"/><rect x="219" y="218" width="7" height="7" fill="#484f58"/><rect x="226" y="218" width="7" height="7" fill="#484f58"/><rect x="233" y="218" width="7" height="7" fill="#484f58"/><rect x="240" y="218" width="7" height="7" fill="#484f58"/><g opacity="0"><rect x="128" y="134" width="14" height="7" fill="#e6edf3"/><rect x="198" y="134" width="14" height="7" fill="#e6edf3"/><animate attributeName="opacity" values="0;0;1;0" keyTimes="0;.94;.97;1" dur="4s" repeatCount="indefinite"/></g></g>
<text x="170.0" y="318" class="s" font-size="16" font-weight="700" fill="#e6edf3" text-anchor="middle" >Shuran Zhao</text>
<text x="170.0" y="342" class="m" font-size="12" font-weight="400" fill="#8b949e" text-anchor="middle" >agents · infra · inference</text>

</svg>
